<?xml version="1.0" standalone="no"?>
<!DOCTYPE svg PUBLIC "-//W3C//DTD SVG 20010904//EN"
 "http://www.w3.org/TR/2001/REC-SVG-20010904/DTD/svg10.dtd">
<svg version="1.0" xmlns="http://www.w3.org/2000/svg"
 width="200.000000pt" height="200.000000pt" viewBox="0 0 200.000000 200.000000"
 preserveAspectRatio="xMidYMid meet">
<metadata>
Created by potrace 1.14, written by Peter Selinger 2001-2017
</metadata>
<g transform="translate(0.000000,200.000000) scale(0.100000,-0.100000)"
fill="#000000" stroke="none">
<path d="M63 1980 c-65 -40 -63 -10 -63 -745 0 -406 4 -665 9 -665 5 0 72 21
148 46 76 26 143 47 148 49 12 3 44 14 70 26 11 4 29 10 40 11 11 2 22 5 25 8
3 3 46 18 95 34 50 16 144 46 210 68 123 40 136 45 145 47 3 0 35 12 72 25 36
13 69 22 72 18 3 -3 6 0 6 7 0 8 8 11 20 8 10 -3 20 -2 22 2 2 4 42 20 91 35
48 16 87 31 87 35 0 4 -48 88 -106 187 -59 98 -118 199 -132 224 -13 25 -28
50 -32 55 -4 6 -22 37 -40 70 -18 33 -36 62 -40 65 -4 3 -13 19 -22 35 -8 17
-39 71 -68 120 -29 50 -58 100 -64 112 -6 13 -14 23 -18 23 -5 0 -8 6 -8 14 0
8 -6 21 -12 28 -7 8 -20 27 -28 43 l-16 30 -289 3 c-273 2 -292 1 -322 -18z"/>
<path d="M733 1938 c19 -35 71 -126 117 -203 84 -142 221 -377 249 -428 9 -16
21 -36 26 -45 6 -9 40 -67 78 -129 37 -62 67 -117 67 -122 0 -16 15 -21 148
-58 172 -46 165 -44 180 -45 6 -1 12 -5 12 -10 0 -6 6 -8 12 -5 7 2 28 -2 47
-9 18 -8 44 -14 57 -14 12 0 26 -5 29 -10 4 -6 10 -8 13 -6 4 2 54 -9 111 -25
58 -16 108 -29 113 -29 4 0 8 248 8 550 0 608 2 591 -63 630 -31 19 -55 20
-635 20 l-603 0 34 -62z"/>
<path d="M1260 968 c-19 -5 -42 -12 -50 -15 -8 -3 -18 -7 -22 -7 -3 -1 -10 -4
-14 -8 -4 -5 -17 -8 -29 -8 -11 0 -26 -5 -33 -12 -7 -7 -12 -8 -12 -4 0 5 -6
3 -14 -3 -8 -6 -18 -11 -22 -9 -5 1 -26 -6 -48 -15 -21 -9 -42 -17 -47 -17 -5
0 -77 -23 -161 -51 -177 -58 -177 -58 -183 -59 -3 0 -24 -8 -47 -16 -24 -9
-50 -17 -58 -19 -8 -2 -17 -4 -20 -5 -3 -1 -8 -2 -12 -1 -5 0 -8 -4 -8 -10 0
-5 -5 -7 -10 -4 -6 4 -17 1 -25 -5 -8 -7 -15 -9 -15 -5 0 4 -7 2 -15 -5 -8 -6
-18 -9 -24 -6 -5 3 -11 2 -13 -2 -1 -4 -75 -32 -163 -61 -88 -28 -167 -55
-175 -58 -8 -3 -21 -5 -28 -4 -9 1 -12 -50 -12 -231 0 -216 2 -235 20 -266 40
-65 -2 -62 987 -62 873 0 899 1 930 20 63 38 64 43 61 421 l-3 342 -125 33
c-69 19 -134 36 -145 39 -72 16 -151 39 -155 44 -3 3 -18 7 -35 9 -16 2 -35 8
-41 13 -7 5 -16 9 -20 7 -7 -2 -46 7 -119 27 -5 1 -14 3 -20 5 -5 1 -17 5 -25
10 -8 4 -31 3 -50 -2z"/>
</g>
</svg>
